<svg xmlns="http://www.w3.org/2000/svg" width="970" height="350" fill="none"><path fill="#FF914D" d="M475.591 77.682q-.545-5.5-4.682-8.546-4.136-3.045-11.227-3.045-4.818 0-8.137 1.364-3.318 1.318-5.09 3.681-1.728 2.364-1.728 5.364-.09 2.5 1.046 4.364 1.182 1.863 3.227 3.227 2.045 1.318 4.727 2.318a49 49 0 0 0 5.728 1.636l8.363 2q6.091 1.365 11.182 3.637 5.09 2.273 8.818 5.59a23.2 23.2 0 0 1 5.773 7.819q2.091 4.5 2.136 10.318-.046 8.545-4.363 14.818-4.273 6.228-12.364 9.682-8.045 3.41-19.409 3.409-11.273 0-19.636-3.454-8.319-3.454-13-10.228-4.637-6.818-4.864-16.863h19.045q.318 4.682 2.682 7.818 2.41 3.091 6.409 4.682 4.046 1.545 9.137 1.545 5 0 8.681-1.454 3.728-1.455 5.773-4.046 2.046-2.59 2.046-5.954 0-3.137-1.864-5.273-1.818-2.136-5.364-3.636-3.5-1.5-8.591-2.728l-10.136-2.545q-11.772-2.864-18.591-8.955-6.818-6.09-6.773-16.409-.045-8.454 4.5-14.772 4.591-6.319 12.591-9.864t18.182-3.546q10.364 0 18.091 3.546 7.773 3.545 12.091 9.863 4.319 6.319 4.455 14.637zm118.92 19.772q0 15.227-5.772 25.91-5.728 10.681-15.637 16.318-9.863 5.59-22.182 5.591-12.409 0-22.272-5.637-9.864-5.636-15.591-16.318-5.727-10.681-5.727-25.864 0-15.227 5.727-25.908 5.727-10.683 15.591-16.273 9.863-5.637 22.272-5.637 12.32 0 22.182 5.637 9.909 5.59 15.637 16.273 5.772 10.68 5.772 25.908m-19.954 0q0-9.862-2.955-16.636-2.909-6.773-8.227-10.272t-12.455-3.5q-7.136 0-12.454 3.5t-8.273 10.272q-2.909 6.772-2.909 16.636t2.909 16.637q2.955 6.772 8.273 10.273t12.454 3.5q7.137 0 12.455-3.5t8.227-10.273q2.955-6.773 2.955-16.636M609.091 144V50.91h36.727q10.591 0 18.046 4.045 7.454 3.999 11.363 11.136 3.955 7.09 3.955 16.364 0 9.272-4 16.363t-11.591 11.046q-7.545 3.954-18.273 3.954h-23.409V98.046h20.227q5.682 0 9.364-1.955 3.727-2 5.545-5.5 1.864-3.546 1.864-8.136 0-4.636-1.864-8.091-1.818-3.5-5.545-5.41-3.727-1.953-9.455-1.954h-13.272v77zm88.17 0H676.17l32.137-93.09h25.363L765.761 144H744.67l-23.318-71.818h-.727zm-1.318-36.591h49.818v15.364h-49.818zM839.591 144h-33V50.91h33.273q14.045 0 24.181 5.59 10.137 5.546 15.591 15.954 5.5 10.41 5.5 24.91 0 14.545-5.5 25-5.454 10.454-15.681 16.045-10.182 5.59-24.364 5.591m-13.318-16.864h12.5q8.727 0 14.682-3.091 6-3.136 9-9.681 3.045-6.591 3.045-17 0-10.319-3.045-16.864-3-6.546-8.955-9.636-5.955-3.091-14.682-3.091h-12.545zM899.716 144V50.91h62.727v16.226h-43.045v22.182h39.818v16.227h-39.818v22.228h43.227V144zm-392.489 94.5h-19.909q-.545-3.864-2.227-6.864a17.5 17.5 0 0 0-4.318-5.181q-2.637-2.138-6.091-3.273-3.41-1.137-7.409-1.137-7.227 0-12.591 3.591-5.364 3.546-8.318 10.364-2.955 6.772-2.955 16.455 0 9.954 2.955 16.727 3 6.772 8.363 10.227 5.364 3.455 12.409 3.455 3.955 0 7.319-1.046 3.408-1.045 6.045-3.045a17.6 17.6 0 0 0 4.364-4.955q1.772-2.909 2.454-6.636l19.909.091q-.773 6.409-3.863 12.363-3.046 5.91-8.228 10.591-5.136 4.637-12.272 7.364-7.092 2.682-16.046 2.682-12.454 0-22.273-5.637-9.772-5.636-15.454-16.318-5.636-10.682-5.636-25.863 0-15.227 5.727-25.91 5.727-10.681 15.545-16.272 9.818-5.637 22.091-5.637 8.091 0 15 2.273 6.956 2.273 12.318 6.636 5.364 4.319 8.728 10.591 3.408 6.273 4.363 14.364m28.409 60.5h-21.091l32.137-93.091h25.363L604.136 299h-21.091l-23.318-71.818H559zm-1.318-36.591h49.818v15.364h-49.818zM615.341 299v-93.091h37.273q10.272 0 17.136 3.046t10.318 8.454q3.455 5.364 3.455 12.364 0 5.454-2.182 9.591a18.84 18.84 0 0 1-6 6.727q-3.773 2.59-8.636 3.682v.909q5.317.227 9.954 3 4.682 2.772 7.591 7.773 2.909 4.954 2.909 11.818 0 7.409-3.682 13.227-3.636 5.773-10.772 9.136Q665.568 299 655.114 299zm19.682-16.091h16.045q8.228 0 12-3.136 3.773-3.182 3.773-8.455 0-3.864-1.864-6.818-1.863-2.955-5.318-4.636-3.41-1.683-8.136-1.682h-16.5zm0-38.045h14.591q4.046 0 7.181-1.409 3.182-1.455 5-4.091 1.864-2.637 1.864-6.319 0-5.044-3.591-8.136-3.545-3.091-10.091-3.091h-14.954zM699.966 299v-93.091h36.727q10.545 0 18 3.773 7.5 3.727 11.409 10.591 3.955 6.818 3.955 16.045 0 9.273-4 15.955-4 6.636-11.591 10.182Q746.921 266 736.193 266h-24.591v-15.818h21.409q5.637 0 9.364-1.546 3.727-1.545 5.545-4.636 1.864-3.091 1.864-7.682 0-4.636-1.864-7.818-1.818-3.182-5.59-4.818-3.728-1.682-9.41-1.682h-13.272v77zm50.273-42.364L773.375 299h-21.727l-22.637-42.364zM800.011 299H778.92l32.137-93.091h25.363L868.511 299H847.42l-23.318-71.818h-.727zm-1.318-36.591h49.818v15.364h-49.818z"/><mask id="mask0_11_15" width="350" height="350" x="0" y="0" maskUnits="userSpaceOnUse" style="mask-type:luminance"><path fill="#fff" d="M0 0h350v350H0z"/></mask><g mask="url('#mask0_11_15')"><mask id="mask1_11_15" width="350" height="350" x="0" y="0" maskUnits="userSpaceOnUse" style="mask-type:luminance"><path fill="#fff" d="M175 0C78.353 0 0 78.348 0 175.003 0 271.652 78.353 350 175 350s175-78.348 175-174.997C350 78.348 271.648 0 175 0"/></mask><g mask="url('#mask1_11_15')"><path fill="#FFDE59" d="M0 0h350v350H0z"/></g><path fill="#FF914D" d="m100.53 138.422 10.063-3.052c-4.073-12.479-21.651-19.87-21.651-19.87l-7.13 9.042c-2.548-2.927 0-11.204 0-11.204-16.428-6.875-30.563-3.312-30.563-3.312l-2.292 9.422-4.583-7.255c-8.532 1.401-16.427 11.203-16.427 11.203-10.063 17.067 2.291 38.203 2.291 38.203-2.927-37.182 20.25-40.24 35.276-36.672 14.896 3.563 14.896 18.719 14.896 18.719-1.656-6.24-10.312-14.391-19.229-14.261-8.911.125-11.713 15.917-11.713 15.917 9.552-4.078 17.828 1.781 17.828 1.781-14.26 1.146-14.771 7.261-14.771 7.261-4.714 21.901 33.49 20.375 33.49 20.375l1.91-16.302 7.131 16.302c22.667-2.547 22.667-32.349 22.667-32.349zM320.582 123.526s-7.896-9.807-16.427-11.208l-4.839 7.26-2.291-9.422s-14.266-3.693-30.693 3.307c0 0 2.547 8.407 0 11.209l-7.13-9.042s-17.573 7.386-21.646 19.865l10.057 3.057-17.192 3.948s0 29.797 22.797 32.344l7.13-16.297 1.911 16.297s38.459 1.531 33.62-20.375c0 0-.51-6.24-14.901-7.256 0 0 8.276-5.989 17.958-1.786 0 0-2.802-15.792-11.843-15.917s-17.704 8.021-19.36 14.261c0 0 0-15.281 15.026-18.719 15.026-3.562 38.459-.51 35.401 36.677.13 0 12.485-21.141 2.422-38.203"/><path fill="#FF914D" d="M227.238 165.292s-10.823 10.573-26.104 9.427c0 0 18.849-6.37 21.776-18.214 2.927-11.838-2.291-18.208 6.75-28.14s18.844-19.105 39.985-21.776c0 0-13.37-9.297-28.141-11.464 0 0-1.656 11.083 0 14.901 0 0-8.786-11.078-9.297-14.901 0 0-16.937 3.698-26.489 12.354 0 0 5.604 13.88 14.265 17.828 0 0-19.739-8.406-23.052-13.114 0 0-17.698 12.224-21.776 21.776 0 0-13.37-17.448-22.922-22.162 0 0-19.739 10.953-22.156 14.776-2.422 3.818 9.167-17.958 13.37-21.651 0 0-18.084-8.02-27.125-8.406 0 0-8.151 8.406-9.677 12.484 0 0-2.422-7.895-.891-14.01 0 0-22.667 3.948-24.703 10.568 0 0 48.771 7.26 45.078 51.578 0 0 13.37 14.26 20.5 17.443 0 0-14.135-.761-24.958-8.401 0 0-10.568 7.51-10.823 11.968-.255 4.839 2.547 15.282 6.75 16.683 0 0 .255-10.954 3.692-12.865 0 0-1.02 15.156 21.136 22.797 16.937 5.859 16.432 20.63 15.411 23.432 0 0-9.932-10.187-16.172-11.588-6.239-1.401-11.718-3.823-15.916-9.427 0 0 1.271 12.354 7.255 23.942s25.599 45.844 27 51.828c0 0 13.37 7.516 31.198 0 0 0 11.203-26.104 22.792-42.406 11.718-16.172 8.916-29.031 8.406-33.364 0 0-7.896 9.682-15.917 11.843-7.896 2.167-14.39 8.282-14.901 9.683 0 0-1.015-11.589 8.406-19.87 9.422-8.276 21.646-5.349 26.615-23.938 0 0 5.094 7.511 3.568 10.948-1.532 3.443 8.021-9.677 5.729-20.5.255.38-2.167-8.021-8.662-10.062"/></g></svg>