<svg xmlns="http://www.w3.org/2000/svg" width="519" height="436" fill="none"><path fill="#FF914D" d="M29.296 387.841q-.273-2.75-2.341-4.273t-5.614-1.523q-2.409 0-4.068.682-1.66.66-2.546 1.841a4.43 4.43 0 0 0-.863 2.682q-.045 1.25.522 2.182.591.932 1.614 1.613 1.023.66 2.364 1.16 1.34.476 2.863.818l4.182 1q3.045.681 5.591 1.818 2.546 1.136 4.41 2.795a11.6 11.6 0 0 1 2.886 3.909q1.045 2.25 1.068 5.16-.023 4.272-2.182 7.409-2.136 3.113-6.182 4.841-4.023 1.704-9.704 1.704-5.636 0-9.819-1.727-4.159-1.727-6.5-5.114-2.318-3.409-2.432-8.432h9.523q.159 2.341 1.341 3.909 1.204 1.546 3.205 2.341 2.021.774 4.568.773 2.5 0 4.34-.727 1.864-.727 2.887-2.023t1.023-2.977q0-1.568-.932-2.637-.909-1.068-2.682-1.818-1.75-.75-4.295-1.363l-5.068-1.273q-5.887-1.432-9.296-4.477-3.409-3.047-3.386-8.205-.022-4.227 2.25-7.386 2.295-3.159 6.295-4.932t9.091-1.773q5.182 0 9.046 1.773 3.886 1.773 6.045 4.932 2.16 3.159 2.227 7.318zm59.46 9.886q0 7.614-2.887 12.955-2.864 5.34-7.818 8.159-4.932 2.796-11.09 2.795-6.206 0-11.137-2.818-4.932-2.818-7.796-8.159t-2.863-12.932q0-7.613 2.863-12.954t7.796-8.137q4.932-2.817 11.136-2.818 6.159 0 11.091 2.818 4.955 2.796 7.818 8.137 2.887 5.34 2.887 12.954m-9.978 0q0-4.931-1.477-8.318-1.454-3.386-4.114-5.136-2.658-1.75-6.227-1.75-3.568 0-6.227 1.75t-4.136 5.136q-1.455 3.387-1.455 8.318 0 4.932 1.455 8.318 1.476 3.387 4.136 5.137 2.659 1.75 6.227 1.75t6.228-1.75q2.658-1.75 4.113-5.137 1.477-3.386 1.477-8.318M96.046 421v-46.545h18.363q5.295 0 9.023 2.022 3.727 2.001 5.682 5.568 1.977 3.546 1.977 8.182t-2 8.182-5.796 5.523q-3.772 1.977-9.136 1.977h-11.704v-7.886h10.113q2.841 0 4.682-.978 1.863-1 2.773-2.75.932-1.772.932-4.068 0-2.318-.932-4.045-.91-1.75-2.773-2.705-1.863-.977-4.727-.977h-6.637V421zm44.085 0h-10.546l16.068-46.545h12.682L174.381 421h-10.546l-11.659-35.909h-.364zm-.659-18.295h24.909v7.681h-24.909zM211.295 421h-16.5v-46.545h16.637q7.023 0 12.091 2.795 5.068 2.773 7.795 7.977 2.75 5.204 2.75 12.455 0 7.272-2.75 12.5-2.727 5.227-7.841 8.023-5.09 2.795-12.182 2.795m-6.659-8.432h6.25q4.364 0 7.341-1.545 3-1.568 4.5-4.841 1.523-3.295 1.523-8.5 0-5.16-1.523-8.432-1.5-3.273-4.477-4.818t-7.341-1.546h-6.273zM241.358 421v-46.545h31.364v8.113h-21.523v11.091h19.909v8.114h-19.909v11.113h21.613V421zm95.068-30.25h-9.954q-.273-1.932-1.114-3.432a8.7 8.7 0 0 0-2.159-2.591 9.5 9.5 0 0 0-3.046-1.636q-1.704-.568-3.704-.568-3.614 0-6.296 1.795-2.681 1.773-4.159 5.182-1.477 3.387-1.477 8.227 0 4.977 1.477 8.364 1.5 3.386 4.182 5.114t6.205 1.727q1.977 0 3.659-.523a9.6 9.6 0 0 0 3.022-1.523 8.7 8.7 0 0 0 2.182-2.477q.886-1.455 1.228-3.318l9.954.045q-.386 3.205-1.932 6.182-1.523 2.955-4.113 5.296-2.568 2.317-6.137 3.681-3.545 1.341-8.022 1.341-6.228 0-11.137-2.818-4.886-2.818-7.727-8.159-2.818-5.341-2.818-12.932 0-7.613 2.863-12.954t7.773-8.137q4.91-2.817 11.046-2.818 4.046 0 7.5 1.137 3.477 1.136 6.159 3.318 2.682 2.159 4.363 5.295 1.705 3.137 2.182 7.182M350.631 421h-10.546l16.068-46.545h12.682L384.881 421h-10.546l-11.659-35.909h-.364zm-.659-18.295h24.909v7.681h-24.909zM390.483 421v-46.545h18.636q5.137 0 8.569 1.522 3.43 1.523 5.159 4.228 1.727 2.681 1.727 6.181 0 2.728-1.091 4.796a9.4 9.4 0 0 1-3 3.363q-1.887 1.296-4.318 1.841v.455q2.66.114 4.977 1.5 2.341 1.386 3.796 3.886 1.454 2.477 1.454 5.909 0 3.705-1.841 6.614-1.818 2.886-5.386 4.568T410.369 421zm9.841-8.045h8.023q4.113 0 6-1.569 1.886-1.59 1.886-4.227 0-1.932-.932-3.409-.931-1.478-2.659-2.318-1.704-.841-4.068-.841h-8.25zm0-19.023h7.295q2.024 0 3.591-.705 1.591-.727 2.5-2.045.932-1.318.932-3.159 0-2.523-1.795-4.068-1.773-1.546-5.046-1.546h-7.477zM432.795 421v-46.545h18.364q5.272 0 9 1.886 3.75 1.863 5.705 5.295 1.977 3.41 1.977 8.023 0 4.636-2 7.977-2 3.318-5.796 5.091-3.772 1.773-9.136 1.773h-12.295v-7.909h10.704q2.819 0 4.682-.773t2.773-2.318q.932-1.545.932-3.841 0-2.317-.932-3.909-.909-1.591-2.796-2.409-1.863-.841-4.704-.841h-6.637V421zm25.137-21.182L469.5 421h-10.864l-11.318-21.182zM482.818 421h-10.545l16.068-46.545h12.682L517.068 421h-10.545l-11.659-35.909h-.364zm-.659-18.295h24.909v7.681h-24.909z"/><mask id="mask0_9_89" width="350" height="350" x="74" y="0" maskUnits="userSpaceOnUse" style="mask-type:luminance"><path fill="#fff" d="M74 0h350v350H74z"/></mask><g mask="url('#mask0_9_89')"><mask id="mask1_9_89" width="350" height="350" x="74" y="0" maskUnits="userSpaceOnUse" style="mask-type:luminance"><path fill="#fff" d="M249 0C152.352 0 74 78.348 74 175.003 74 271.652 152.352 350 249 350s175-78.348 175-174.997C424 78.348 345.648 0 249 0"/></mask><g mask="url('#mask1_9_89')"><path fill="#FFDE59" d="M74 0h350v350H74z"/></g><path fill="#FF914D" d="m174.53 138.422 10.063-3.052c-4.073-12.479-21.652-19.87-21.652-19.87l-7.13 9.042c-2.547-2.927 0-11.203 0-11.203-16.427-6.875-30.562-3.313-30.562-3.313l-2.292 9.422-4.583-7.255c-8.531 1.401-16.427 11.203-16.427 11.203-10.063 17.068 2.291 38.203 2.291 38.203-2.927-37.182 20.25-40.24 35.276-36.672 14.896 3.563 14.896 18.719 14.896 18.719-1.656-6.24-10.312-14.391-19.229-14.261-8.911.125-11.713 15.917-11.713 15.917 9.552-4.078 17.828 1.781 17.828 1.781-14.261 1.146-14.771 7.261-14.771 7.261-4.714 21.901 33.489 20.375 33.489 20.375l1.912-16.302 7.13 16.302c22.667-2.547 22.667-32.349 22.667-32.349zM394.582 123.526s-7.896-9.807-16.427-11.208l-4.839 7.26-2.291-9.422s-14.266-3.692-30.693 3.308c0 0 2.547 8.406 0 11.208l-7.13-9.042s-17.573 7.386-21.646 19.865l10.057 3.057-17.192 3.948s0 29.797 22.797 32.344l7.13-16.297 1.911 16.297s38.459 1.531 33.62-20.375c0 0-.51-6.24-14.901-7.255 0 0 8.276-5.99 17.958-1.787 0 0-2.802-15.792-11.843-15.917s-17.704 8.021-19.36 14.261c0 0 0-15.281 15.026-18.719 15.026-3.562 38.459-.51 35.401 36.677.13 0 12.485-21.14 2.422-38.203"/><path fill="#FF914D" d="M301.238 165.292s-10.823 10.573-26.104 9.427c0 0 18.849-6.37 21.776-18.214 2.927-11.838-2.291-18.208 6.75-28.14s18.844-19.105 39.985-21.776c0 0-13.37-9.297-28.141-11.464 0 0-1.656 11.083 0 14.901 0 0-8.786-11.078-9.297-14.901 0 0-16.937 3.698-26.489 12.354 0 0 5.604 13.88 14.265 17.828 0 0-19.739-8.406-23.052-13.114 0 0-17.698 12.224-21.776 21.776 0 0-13.37-17.448-22.922-22.162 0 0-19.739 10.953-22.156 14.776-2.422 3.818 9.167-17.958 13.37-21.651 0 0-18.084-8.02-27.125-8.406 0 0-8.151 8.406-9.677 12.484 0 0-2.422-7.895-.891-14.01 0 0-22.667 3.948-24.703 10.568 0 0 48.771 7.26 45.078 51.578 0 0 13.37 14.26 20.5 17.443 0 0-14.135-.761-24.958-8.401 0 0-10.568 7.51-10.823 11.968-.255 4.839 2.547 15.282 6.75 16.683 0 0 .255-10.954 3.692-12.865 0 0-1.02 15.156 21.136 22.797 16.937 5.859 16.432 20.63 15.411 23.432 0 0-9.932-10.187-16.172-11.588-6.239-1.401-11.718-3.823-15.916-9.427 0 0 1.271 12.354 7.255 23.942s25.599 45.844 27 51.828c0 0 13.37 7.516 31.198 0 0 0 11.203-26.104 22.792-42.406 11.718-16.172 8.916-29.031 8.406-33.364 0 0-7.896 9.682-15.917 11.843-7.896 2.167-14.39 8.282-14.901 9.683 0 0-1.015-11.589 8.406-19.87 9.422-8.276 21.646-5.349 26.615-23.938 0 0 5.094 7.511 3.568 10.948-1.532 3.443 8.021-9.677 5.729-20.5.255.38-2.167-8.021-8.662-10.062"/></g></svg>